<svg width="30" height="27" viewBox="0 0 30 27" fill="none" xmlns="http://www.w3.org/2000/svg">
<path d="M29.3629 10.1187H1.85261C1.50748 10.1187 1.22736 10.3708 1.22736 10.6814V24.1865C1.22736 25.7373 2.62915 27 4.3535 27H26.8619C28.5863 27 29.988 25.7373 29.988 24.1865V10.6814C29.9881 10.3708 29.708 10.1187 29.3629 10.1187ZM28.7376 24.1864C28.7376 25.1171 27.8961 25.8745 26.8619 25.8745H4.35356C3.3194 25.8745 2.47786 25.1171 2.47786 24.1864V11.2441H28.7376V24.1864Z" fill="white"/>
<path d="M29.9681 4.91139L28.9039 1.27743C28.6588 0.393963 27.656 -0.16085 26.6619 0.0417248L1.46997 5.4212C0.97479 5.52249 0.555865 5.7937 0.289516 6.18313C0.0231675 6.57251 -0.0556117 7.03168 0.0694152 7.47734L1.24735 11.6684C1.3174 11.9227 1.57249 12.0927 1.85256 12.0927C1.90256 12.0927 1.95384 12.0882 2.0076 12.0758C2.34147 12.0004 2.54404 11.6943 2.45899 11.3927L2.39024 11.1485L29.5015 5.60468C29.6666 5.56981 29.8104 5.47749 29.898 5.34698C29.9868 5.21641 30.0106 5.05884 29.9681 4.91139ZM2.08397 10.0568L1.28117 7.20387C1.23991 7.05531 1.2674 6.90227 1.35497 6.77171C1.44377 6.6423 1.58381 6.55225 1.75385 6.51622L26.9457 1.1379C26.9907 1.12777 27.0369 1.12329 27.082 1.12329C27.3621 1.12329 27.6209 1.29658 27.6922 1.55655L28.5938 4.63459L2.08397 10.0568Z" fill="white"/>
<path d="M7.13458 10.1772C6.82444 10.0411 6.45182 10.1513 6.29427 10.4293L3.79332 14.931C3.63951 15.2089 3.76454 15.5466 4.07344 15.6862C4.16471 15.7267 4.25978 15.7458 4.35356 15.7458C4.5824 15.7458 4.80373 15.6321 4.91375 15.4341L7.4147 10.9324C7.56851 10.6544 7.44342 10.3168 7.13458 10.1772Z" fill="white"/>
<path d="M13.3857 10.1772C13.0768 10.0411 12.7017 10.1513 12.5466 10.4293L10.0456 14.931C9.89183 15.2089 10.0169 15.5466 10.3258 15.6862C10.417 15.7267 10.5121 15.7458 10.6059 15.7458C10.8347 15.7458 11.0561 15.6321 11.1648 15.4341L13.6658 10.9324C13.8195 10.6544 13.6945 10.3168 13.3857 10.1772Z" fill="white"/>
<path d="M19.6379 10.1772C19.3303 10.0411 18.9552 10.1513 18.7988 10.4293L16.2979 14.931C16.1441 15.2089 16.2691 15.5466 16.578 15.6862C16.6693 15.7267 16.7644 15.7458 16.8581 15.7458C17.087 15.7458 17.3083 15.6321 17.4171 15.4341L19.918 10.9324C20.0718 10.6544 19.9468 10.3168 19.6379 10.1772Z" fill="white"/>
<path d="M25.8903 10.1772C25.5802 10.0411 25.2076 10.1513 25.0512 10.4293L22.5503 14.931C22.3965 15.2089 22.5215 15.5466 22.8304 15.6862C22.9217 15.7267 23.0167 15.7458 23.1105 15.7458C23.3394 15.7458 23.5607 15.6321 23.6695 15.4341L26.1704 10.9324C26.3242 10.6544 26.1992 10.3168 25.8903 10.1772Z" fill="white"/>
<path d="M29.3629 14.6204H1.85261C1.50748 14.6204 1.22736 14.8725 1.22736 15.1831C1.22736 15.4937 1.50748 15.7458 1.85261 15.7458H29.3629C29.7092 15.7458 29.9881 15.4937 29.9881 15.1831C29.9881 14.8725 29.708 14.6204 29.3629 14.6204Z" fill="white"/>
<path d="M7.8986 9.13623L3.592 5.2603C3.34816 5.04084 2.95175 5.04084 2.7079 5.2603C2.46406 5.47975 2.46406 5.83653 2.7079 6.05598L7.0145 9.93303C7.13707 10.0422 7.29709 10.0974 7.45717 10.0974C7.61724 10.0974 7.77727 10.0422 7.8986 9.93192C8.14244 9.71241 8.14244 9.35569 7.8986 9.13623Z" fill="white"/>
<path d="M14.0158 7.8859L9.70553 4.00996C9.46169 3.7905 9.06527 3.7905 8.82143 4.00996C8.57759 4.22942 8.57759 4.58619 8.82143 4.80565L13.1305 8.68158C13.2531 8.79073 13.4131 8.84591 13.5732 8.84591C13.7333 8.84591 13.8933 8.79079 14.0159 8.68158C14.2597 8.46213 14.2597 8.10535 14.0158 7.8859Z" fill="white"/>
<path d="M20.1282 6.63557L15.8253 2.75853C15.5815 2.53907 15.1851 2.53907 14.9412 2.75853C14.6974 2.97798 14.6974 3.33476 14.9412 3.55421L19.2441 7.43126C19.3667 7.54041 19.5267 7.59559 19.6868 7.59559C19.8468 7.59559 20.0069 7.54157 20.1282 7.43126C20.372 7.2118 20.372 6.85503 20.1282 6.63557Z" fill="white"/>
<path d="M26.2379 5.38637L21.9338 1.50932C21.69 1.28986 21.2935 1.28986 21.0497 1.50932C20.8059 1.72878 20.8059 2.08555 21.0497 2.30501L25.3538 6.18205C25.4763 6.2912 25.6364 6.34638 25.7964 6.34638C25.9565 6.34638 26.1165 6.29125 26.2379 6.18205C26.4818 5.9626 26.4818 5.60582 26.2379 5.38637Z" fill="white"/>
</svg>
